<svg id="Layer_1" data-name="Layer 1" xmlns="http://www.w3.org/2000/svg" viewBox="0 0 533.11 317.62"><defs><style>.cls-1,.cls-9{fill:#dad2d8;}.cls-11,.cls-12,.cls-13,.cls-2,.cls-8{fill:none;}.cls-10,.cls-11,.cls-12,.cls-13,.cls-2,.cls-5,.cls-8,.cls-9{stroke:#000;}.cls-12,.cls-13,.cls-2,.cls-9{stroke-linecap:round;}.cls-12,.cls-2,.cls-9{stroke-linejoin:round;}.cls-10,.cls-2,.cls-5,.cls-8,.cls-9{stroke-width:1.06px;}.cls-3,.cls-5{fill:#febe3b;}.cls-10,.cls-4{fill:#d62129;}.cls-10,.cls-11,.cls-13,.cls-5{stroke-miterlimit:10;}.cls-6{fill:#fff;}.cls-7{fill:#d82128;}.cls-11,.cls-12,.cls-13{stroke-width:0.64px;}</style></defs><path class="cls-1" d="M105.54,179.22c1,8.83,4.74,22,12.18,32.38H75.58l-.14-34.71L53.26,161.07H75.44l.14-45.9h44A20.85,20.85,0,0,0,118,120.3c-1.35,7.4.16,14.11,1.72,16.69-6,2.67-11.86,9.2-13.32,15.42-1.54,6.55-1.67,19.29-.92,26.29Z"/><path class="cls-1" d="M193.72,129.8l-1.44,5c-.79,3.34-1.42,5.85-2.21,9.53v0a8.93,8.93,0,0,0-3.87,7.45c0,.14,0,.28,0,.43a19,19,0,0,0,.39,3.16c.05.29.11.6.16.89l0,.06c-1.29,2.06-2.7,4.15-4.16,6.17-2.62,3.63-5.39,7.12-7.89,10.12-1.55,1.86-3,3.53-4.25,4.93-.17.2-.34.4-.52.59-2.09,2.34-3.52,3.85-3.76,4.1l0,0a.19.19,0,0,1,0-.07A91,91,0,0,0,161,168.8l-.08-.17c-2.54-5.33-5.94-10.83-10.1-13.77-.17-.11-.33-.23-.5-.33l-.32-.21a12,12,0,0,0-2.3-1.09h0c-1.31-.46-4-.64-4.08-.88a36.1,36.1,0,0,1-.06-3.93c4.9,1.24,7.81.33,9.59-1.41,2-2,2.56-5,2.9-7a41.8,41.8,0,0,0,.57-5.89c0-.36,0-.71,0-1.07,1.91,0,3.88-1.66,4.55-4.44a.58.58,0,0,0-.47-.56c-1.46,0-2.92.06-4.39.11a33.39,33.39,0,0,0-4.18-12.94h59.15s-7.89,13.9-14.87,15.45C198,126,192,129.6,193.72,129.8Z"/><path class="cls-1" d="M157.56,197.35v3.5s2.89.28,5.45.29Z"/><path class="cls-1" d="M205,144.06c-.76,2.25-2.13,3.12-2.33,3.66s-4.35,9.81-8.43,18.1-8.15,16.86-10.69,20.57l16.85-.75-8.14,26h19V115.16L196.44,130s-.89,8-.89,11c.9-2.48,2.12-4,3.3-3.75s2.8,2,5,4C205.44,142.6,205.4,142.77,205,144.06Z"/><polyline class="cls-2" points="211.26 115.17 211.26 211.6 192.22 211.6"/><line class="cls-2" x1="152.11" y1="115.16" x2="211.26" y2="115.16"/><path class="cls-1" d="M451.89,230.67l-23.7,14.82L428,289.17H400.88c.29-3.76.5-7.08.65-10.08l.23.18a26.75,26.75,0,0,0,8,.18c3.89-21.4-1.53-39.29-9.64-48.95a22.32,22.32,0,0,0-11.51-7.45,8.59,8.59,0,0,0-4.64.55c.74-1.57,1.57-3.23,2.06-4.18,4.4-7.68,11.66-8.71,13.41-16.12a24,24,0,0,0,.57-3.44h28l.15,30.81Z"/><path class="cls-1" d="M360.47,219.43c-16.45,1.36-14.58,18.21-28.19,32.42-5.62-5.65-23.42-20.27-32.46-26.24V200.86H359.1l-1.68,2.79,2.79.73s-1.29,5.19.36,7.36c0,0,1.56,3.52,7.68,5.68a16.68,16.68,0,0,1-.89,3.57S363,219.22,360.47,219.43Z"/><path class="cls-1" d="M354.08,289.17H299.82V242.08c8.45,10.46,20.14,23.74,31,35.95,10.53-5.16,15.17-10.3,21.39-17.84C352.2,260.19,355.29,278.32,354.08,289.17Z"/><polygon class="cls-2" points="386.01 120.63 386.01 159.52 415.41 159.65 415.32 170.43 423.64 159.64 433.39 159.52 433.39 120.63 386.01 120.63"/><polyline class="cls-2" points="117.71 211.6 75.58 211.6 75.45 176.89 53.25 161.07 75.45 161.07 75.58 115.16 119.62 115.16"/><path class="cls-2" d="M361.43,248.23c-7.71,10.09-18.59,25.72-30.62,29.8-15-16.88-31.61-35.82-39-46.52l-.58-.39-13.19,1s-9.46-6.31-12.26-9.46a17.27,17.27,0,0,1,2.76-.47,13.54,13.54,0,0,1,3.21.7,18.21,18.21,0,0,1,6.07,3.18c4.38-3.15,13.48-5,18.53-2.56,6.7,3.29,29.48,21.82,36,28.35,13.61-14.23,11.69-32.09,28.19-32.44,3.45-.07,7.62,2.14,10.9,3.25a28.46,28.46,0,0,0,9,1.69c2.77,0,5.52-2,8.27-1.31a22.21,22.21,0,0,1,11.49,7.45c8.12,9.66,13.53,27.55,9.65,48.95a27.58,27.58,0,0,1-8-.17"/><path class="cls-2" d="M386.05,219.42c4.4-7.68,11.65-8.71,13.41-16.12,2.63-11.08-2.41-23.29-17.08-25.81-7.3-1.26-15.88,2.49-17.42,10.21h0c.2,3.89,5.55,5.31,5.69,9.7.08,2.17-3,11.58.32,5,1.25-2.45,1.47-4.79,5.11-5a2.71,2.71,0,0,1,1.79.38c1,.68,1.12,2.05,1,3.24a9.87,9.87,0,0,1-1.62,4.67,7.11,7.11,0,0,1-3.51,2.62C373.6,212.49,372.92,218.7,386.05,219.42Z"/><path class="cls-2" d="M365,187.71c-2.23,5-3.79,13.42-4.95,19.33-1.08,5.57,3.95,10.21,10.35,10.68"/><path class="cls-2" d="M352.2,260.19c.76,4.16,2.6,19.11,1.88,29"/><path class="cls-2" d="M399.39,242.65c2.16,16.91,3.29,21.31,1.27,46.52"/><polyline class="cls-2" points="362.48 195.27 357.42 203.65 360.21 204.38"/><path class="cls-2" d="M368.25,217.42a6.26,6.26,0,0,1-.89,3.57"/><path class="cls-2" d="M375.63,201.23a4.56,4.56,0,0,1-1.56,3.86"/><path class="cls-2" d="M309.92,233.44c-2.56,3.47-7.06,5.95-10.39,8.26"/><path class="cls-2" d="M319.57,241.19a54.06,54.06,0,0,1-11.63,9.75"/><circle cx="311.03" cy="240.36" r="1.43"/><path class="cls-2" d="M386.46,218.61s-2,3.71-2,4.83"/><path class="cls-2" d="M372.34,234.51a9.84,9.84,0,0,1-2.13,8"/><path class="cls-3" d="M407.87,141.25c-1.61,1.36-2.85,2.51-2.85,3.82v1.57h-3.36v-1.56c0-2.59,1.79-4.31,3.95-6.13s2.84-2.51,2.51-4.39-2.18-3.19-4.47-3a4.71,4.71,0,0,0-4.31,4l-.27,1.53-3.32-.46.27-1.57a8,8,0,0,1,7.28-6.62c4.08-.4,7.5,1.94,8.13,5.57S410,139.43,407.87,141.25Z"/><path class="cls-3" d="M405.65,150.36a2.24,2.24,0,0,1-4.47,0,2.14,2.14,0,0,1,.58-1.46,2.19,2.19,0,0,1,1.66-.65A2.1,2.1,0,0,1,405.65,150.36Z"/><rect class="cls-3" x="417.64" y="128.43" width="3.35" height="18.21"/><path class="cls-3" d="M421.55,150.36a2.24,2.24,0,0,1-4.47,0,2.17,2.17,0,0,1,.57-1.46,2.24,2.24,0,0,1,1.66-.65A2.1,2.1,0,0,1,421.55,150.36Z"/><circle class="cls-4" cx="230.71" cy="247.63" r="2.71"/><circle class="cls-4" cx="216.95" cy="247.63" r="2.71"/><circle class="cls-4" cx="203.46" cy="247.63" r="2.71"/><line class="cls-2" x1="194.49" y1="267.07" x2="238.94" y2="267.07"/><line class="cls-2" x1="194.49" y1="259.06" x2="238.94" y2="259.06"/><polygon class="cls-2" points="251.91 280.44 251.91 234.03 209.02 233.89 196.45 218.63 196.56 233.89 182.23 234.03 182.23 280.44 251.91 280.44"/><path class="cls-5" d="M278,270.86a15.29,15.29,0,1,1-15.29-15.29A15.3,15.3,0,0,1,278,270.86Z"/><path class="cls-6" d="M271.13,267.12l-11.21,11.21-5.6-5.61a1.76,1.76,0,0,1,0-2.48h0a1.74,1.74,0,0,1,2.48,0l3.13,3.13,8.72-8.73a1.74,1.74,0,0,1,2.48,0h0A1.74,1.74,0,0,1,271.13,267.12Z"/><rect class="cls-7" x="441.15" y="185.29" width="4.85" height="4.85" transform="translate(-2.81 368.63) rotate(-45)"/><rect x="106.59" y="80.99" width="9.52" height="9.52" transform="translate(-28.02 103.85) rotate(-45)"/><rect class="cls-3" x="83.14" y="234.22" width="6.69" height="6.69" transform="translate(-142.66 130.74) rotate(-45)"/><rect class="cls-2" x="152.8" y="252.71" width="14.96" height="14.96"/><line class="cls-2" x1="157.35" y1="258.9" x2="163.22" y2="258.9"/><line class="cls-2" x1="157.35" y1="262.22" x2="163.22" y2="262.22"/><rect class="cls-2" x="128.26" y="233.67" width="14.96" height="14.96"/><line class="cls-2" x1="132.81" y1="239.49" x2="138.67" y2="239.49"/><line class="cls-2" x1="132.81" y1="242.81" x2="138.67" y2="242.81"/><polyline class="cls-2" points="132.96 248.63 132.96 257.71 118 257.71 118 242.75 128.26 242.75"/><line class="cls-2" x1="122.55" y1="252.39" x2="128.41" y2="252.39"/><path d="M386.05,219.42c4.4-7.68,11.65-8.71,13.41-16.12,2.63-11.08-2.41-23.29-17.08-25.81-7.3-1.26-15.88,2.49-17.42,10.21h0c.2,3.89,5.55,5.31,5.69,9.7.08,2.17-3,11.58.32,5,1.25-2.45,1.47-4.79,5.11-5a2.71,2.71,0,0,1,1.79.38c1,.68,1.12,2.05,1,3.24a9.87,9.87,0,0,1-1.62,4.67,7.11,7.11,0,0,1-3.51,2.62C373.6,212.49,372.92,218.7,386.05,219.42Z"/><polyline class="cls-8" points="299.83 225.61 299.83 200.87 359.4 200.87"/><polyline class="cls-8" points="400.16 199.86 428.05 199.86 428.19 230.67 451.89 230.67 428.19 245.49 428.05 289.17 299.83 289.17 299.83 242.08"/><path class="cls-4" d="M140,163.55a43.65,43.65,0,0,1-4.64,12.06,83.88,83.88,0,0,1-14.2-24.54l4.54-1.14s10.16,11.75,14.48,13.44a22.59,22.59,0,0,0,3.37-11.85l2.75,1.71a61.71,61.71,0,0,1,2.56,19,37.34,37.34,0,0,0-8.68-8.88Z"/><path class="cls-2" d="M195.75,141.51a4.87,4.87,0,0,1-.2-1.32c0-.68,1-1.79,1.79-2.62a1.67,1.67,0,0,1,2.27-.09l5,4.39a1.7,1.7,0,0,1,.36,2.19c-.58.94-2.27,3.39-2.9,3.51a5.59,5.59,0,0,1-5.15-1.39"/><path class="cls-2" d="M195.06,141.6c.8-2.93,1.12-8.56,1.38-11.59,0-.53,0-1.17-.43-1.45a1.06,1.06,0,0,0-.95,0c-1.21.45-1.68,1.88-2,3.12l-3,12.75"/><path class="cls-2" d="M137.74,144.84c3.07,2.66,7.47,4.57,11.64,3.88,7.81-1.3,7.42-11.58,7.07-17.63-.4-7.13-2.41-15.12-8.12-19.9-6.69-5.61-17.65-6.14-24.68-1-3.28,2.4-4.93,6.16-5.65,10.11-1.36,7.45.18,14.19,1.76,16.74s5.34,6.91,9.94,5.47"/><path class="cls-2" d="M143.53,148.41a26.08,26.08,0,0,1-3.5,15.14,74.42,74.42,0,0,1-14.29-13.63A15.32,15.32,0,0,0,130,137.74a2.14,2.14,0,0,0-.33-1.08,2.35,2.35,0,0,0-1.12-.68c-2.06-.75-4.21-1.62-5.52-3.38s-1.28-4.68.6-5.79c2.19-1.29,4.83.58,6.72,2.27a2.23,2.23,0,0,0,1.47.76,2,2,0,0,0,1-.41,15,15,0,0,0,6.65-11l13.93.13"/><path class="cls-2" d="M105.29,173.59a62.83,62.83,0,0,1,1.11-21.18c1.58-6.73,6.8-13.18,13.36-15.37"/><path class="cls-2" d="M139.55,128.46c2.63,0,5.25,0,7.88,0a.71.71,0,0,1,.48.12.7.7,0,0,1,.16.56,4.58,4.58,0,0,1-3.84,4.17c-2,.28-4.33-1.3-5.13-4.28C139,128.83,139.34,128.46,139.55,128.46Z"/><path class="cls-2" d="M160.68,128q-3.94.06-7.87.23a.76.76,0,0,0-.49.14.68.68,0,0,0-.13.56,4.59,4.59,0,0,0,4,4.06c2,.21,4.29-1.43,5-4.43A.59.59,0,0,0,160.68,128Z"/><path class="cls-2" d="M148,129.47c1.29,0,2.93,0,4.23,0"/><path class="cls-2" d="M139.08,129.09c-2.6-.39-7.59-1-10.08-1.09"/><path class="cls-2" d="M126.14,173.58c3.39,11.59,4.75,19.59,9.23,27.88,10.69-.67,22.91-.28,34.47-.28,0,0,3.45-1.11,5.4-.79"/><path d="M155,210.06a1.07,1.07,0,0,0-.79,2A1.07,1.07,0,0,0,155,210.06Z"/><path d="M188.4,170.53a1.07,1.07,0,0,0-.79,2A1.07,1.07,0,0,0,188.4,170.53Z"/><path class="cls-2" d="M149.15,201.18s.12,10.66,2.32,14.92"/><path class="cls-2" d="M160.43,201.18s-.17,8.82,1.62,12.41"/><path class="cls-2" d="M121.19,151.07a83.88,83.88,0,0,0,14.2,24.54A43.65,43.65,0,0,0,140,163.55"/><path class="cls-2" d="M140.21,163.37a37.34,37.34,0,0,1,8.68,8.88,61.71,61.71,0,0,0-2.56-19"/><path class="cls-2" d="M166.11,182.34c-8.62-27-16-28.71-22.31-30.27"/><path class="cls-2" d="M157.56,200.85c0-7.4-1.56-25.24-3.06-31.74"/><polyline class="cls-2" points="174.99 203.36 179.94 186.55 200.37 185.64 190.94 215.68 169.82 216.72 171.37 212.1"/><path class="cls-2" d="M172.89,202.94c1.27.82,3.79.3,5.79-.34,4.63-1.48,6.32,2.38,8.28,4.78-6.92,3.88-13.21,6.25-18.09,4-10,3.9-28.66,7.15-43.32,8.75-15.14-12.49-20.74-36.8-20.25-46.54.31-6.43,3.77-20.94,20.43-23.65"/><path class="cls-2" d="M202.88,147.07c-.89,2.46-3.81,9.21-5.24,11.93-3.59,6.82-10.68,22.22-14.12,27.39"/><path class="cls-2" d="M192.36,152.36a4.6,4.6,0,0,0,3.29-1.6,4.55,4.55,0,0,0,1-3.5,4.38,4.38,0,0,1-.09-.88c.09-1.2,1.79-1.64,2.54-2.39a3.87,3.87,0,0,0,1.25-2.59,1.4,1.4,0,0,0-.66-1.34,1.83,1.83,0,0,0-1.54.25l-4.48,2.22c-2.08,1-4.39,1.93-5.88,3.8a8.22,8.22,0,0,0-1.6,4.85,24.16,24.16,0,0,0,.55,5.15s-15.42,21.95-23.31,28.49"/><path class="cls-2" d="M182.37,162.39c2.6,2.25,6.88,5.42,10.49,6.18"/><path class="cls-2" d="M174.56,172.59c3.55,2.84,9,6.73,12.4,7.75"/><path class="cls-2" d="M157.56,197.35l5.45,3.79"/><path d="M154,118.32c-4.54,0-10.38.05-14.37,0a15.15,15.15,0,0,1-6.72,11.1,2.1,2.1,0,0,1-1,.41,2.31,2.31,0,0,1-1.5-.77c-1.9-1.71-4.57-3.6-6.78-2.3-1.92,1.13-1.93,4.08-.62,5.86s3.51,2.67,5.59,3.43a2.39,2.39,0,0,1,1.14.69,2.32,2.32,0,0,1,.33,1.09,15.21,15.21,0,0,1-.32,5.08,15.56,15.56,0,0,1-4,7.25c-20.66,3.33-20.68,23.83-20.68,23.93a63.22,63.22,0,0,1,1.11-21.42c1.61-6.81,6.73-13.66,13.36-15.86-1.6-2.59-3-9.1-1.61-16.63.72-4,2.39-7.8,5.72-10.23,7.11-5.21,18.2-4.67,25,1A20,20,0,0,1,154,118.32Z"/><path d="M171.37,212.1l-1.55,4.62,21.13-1,9.42-30-20.43.91L175,203.36c2.06,0,3.81-1.14,5.86-1.24a4.38,4.38,0,0,1,1.73.15,4.73,4.73,0,0,1,1.71,1.21,18.62,18.62,0,0,1,2.22,2.71,1.16,1.16,0,0,1,.26.72,1.12,1.12,0,0,1-.5.67C182,210.88,174.56,212.93,171.37,212.1Z"/><path class="cls-3" d="M275.26,92.42a11.19,11.19,0,0,0,5.07-9.27,11,11,0,0,0-22,0c0,3.8,3.35,9.21,4.86,9.13.13-2.18-.05-5.52,4.22-6.53,0,0-2.28-1.59-.88-4.91V77.13h5.6L272,80.86s2.2,3.09-.78,4.89C273.16,86.41,275.69,87.33,275.26,92.42Z"/><rect class="cls-3" x="308.23" y="72.02" width="10.44" height="10.44"/><polygon class="cls-4" points="318.14 102.8 318.67 102.8 318.67 92.36 308.23 92.36 308.23 102.8 315.05 102.8 318.14 102.8"/><path class="cls-1" d="M318.67,124V124H308.23V113.59h9.71S318.28,123.63,318.67,124Z"/><line class="cls-2" x1="280.34" y1="80.41" x2="298.64" y2="80.41"/><circle class="cls-2" cx="269.31" cy="83.15" r="11.01"/><path class="cls-2" d="M272,80.86a3.42,3.42,0,1,1-5.43,0"/><path class="cls-2" d="M275.27,92.42c0-2.86,0-5.66-3.58-6.62"/><path class="cls-2" d="M267.38,85.75c-3.57,1.12-4.27,3.61-4.27,6.5"/><path class="cls-2" d="M272.1,77.45v3.39a10.72,10.72,0,0,1-5.6,0V77.45"/><line class="cls-2" x1="274.09" y1="77.13" x2="264.51" y2="77.13"/><polyline class="cls-2" points="355.12 137.77 298.63 137.77 298.63 59.23 363.64 59.23 363.64 137.77 354.23 137.77"/><line class="cls-2" x1="327.05" y1="74.84" x2="355.12" y2="74.84"/><line class="cls-2" x1="327.05" y1="79.95" x2="346.75" y2="79.95"/><line class="cls-2" x1="327.05" y1="95.1" x2="355.12" y2="95.1"/><line class="cls-2" x1="327.05" y1="100.2" x2="346.75" y2="100.2"/><line class="cls-2" x1="333.62" y1="115.99" x2="355.12" y2="115.99"/><line class="cls-2" x1="333.52" y1="121.09" x2="346.75" y2="121.09"/><rect class="cls-2" x="308.23" y="72.02" width="10.44" height="10.44"/><polyline class="cls-2" points="318.14 102.8 318.67 102.8 318.67 92.36 308.23 92.36 308.23 102.8 318.14 102.8"/><polyline class="cls-2" points="318.67 113.59 318.67 124.04 308.23 124.04 308.23 113.59 318.67 113.59"/><line class="cls-2" x1="269.31" y1="94.16" x2="269.33" y2="126.23"/><rect class="cls-2" x="227.59" y="120.56" width="61.45" height="37.16"/><line class="cls-2" x1="238.25" y1="133.71" x2="276.74" y2="133.71"/><line class="cls-2" x1="238.25" y1="140.41" x2="276.74" y2="140.41"/><line class="cls-2" x1="238.25" y1="147.12" x2="253.98" y2="147.12"/><rect class="cls-9" x="236.71" y="100.2" width="17.26" height="10.01"/><polygon class="cls-5" points="273.91 121.03 269.31 127.35 264.75 121.01 273.91 121.03"/><path class="cls-10" d="M295.78,158.68A10.58,10.58,0,1,1,285.2,148.1,10.58,10.58,0,0,1,295.78,158.68Z"/><path class="cls-6" d="M291,156.09l-7.76,7.76L279.38,160a1.21,1.21,0,0,1,0-1.71h0a1.2,1.2,0,0,1,1.71,0l2.17,2.16,6-6a1.23,1.23,0,0,1,1.72,0h0A1.23,1.23,0,0,1,291,156.09Z"/><line class="cls-2" x1="253.98" y1="105.9" x2="269.33" y2="105.9"/><polygon class="cls-2" points="305.7 182.77 305.7 157.71 335.65 157.71 335.65 168.44 348.89 175.02 335.65 174.98 335.65 182.77 305.7 182.77"/><circle class="cls-4" cx="315.7" cy="169.33" r="1.95"/><circle class="cls-4" cx="325.4" cy="169.33" r="1.95"/><rect x="401.19" y="81.38" width="4.46" height="4.46" transform="translate(59.04 309.75) rotate(-45)"/><rect class="cls-4" x="211.22" y="87.02" width="5.72" height="5.72" transform="translate(-0.85 177.7) rotate(-45)"/><path class="cls-11" d="M243.27,197l-12.47,9.45c-1.06.81-1.43,2.1-.83,2.89a2.16,2.16,0,0,0,3,0l12.48-9.45"/><path class="cls-12" d="M250,203.74a16.46,16.46,0,1,0-8.72-16.86A16.44,16.44,0,0,0,250,203.74Z"/><path class="cls-12" d="M249.93,199a12.34,12.34,0,0,0,6,2.52,12.47,12.47,0,0,0,14.05-10.65,12.3,12.3,0,0,0-.57-5.78A12.47,12.47,0,1,0,249.93,199Z"/><path d="M243.36,197l-12.47,9.45a1.88,1.88,0,1,0,2.18,2.87l12.47-9.45Z"/><path d="M243.27,197a16,16,0,0,0,2.08,3,16.53,16.53,0,0,0,4.74,3.71,16.76,16.76,0,0,0,5.35,1.7A16.48,16.48,0,1,0,243.27,197Zm2.06-9.65A12.47,12.47,0,0,1,269.46,185a12.3,12.3,0,0,1,.57,5.78,12.47,12.47,0,0,1-24.7-3.4Z"/><line class="cls-13" x1="257.65" y1="185.22" x2="263.55" y2="194.25"/><line class="cls-13" x1="254" y1="187.85" x2="257.68" y2="193.45"/><line class="cls-13" x1="251.12" y1="183.64" x2="252.86" y2="186.29"/></svg>